Coordinates
version=1
nRows=17
nColumns=34
inDegrees=yes

Units are S.I. units (second, meters, Newtons, ...)
If the header above contains a line with 'inDegrees', this indicates whether rotational values are in degrees (yes) or radians (no).

endheader
time	pelvis_tilt	pelvis_list	pelvis_rotation	pelvis_tx	pelvis_ty	pelvis_tz	hip_flexion_r	hip_adduction_r	hip_rotation_r	knee_angle_r	ankle_angle_r	subtalar_angle_r	mtp_angle_r	hip_flexion_l	hip_adduction_l	hip_rotation_l	knee_angle_l	ankle_angle_l	subtalar_angle_l	mtp_angle_l	lumbar_extension	lumbar_bending	lumbar_rotation	arm_flex_r	arm_add_r	arm_rot_r	elbow_flex_r	pro_sup_r	arm_flex_l	arm_add_l	arm_rot_l	elbow_flex_l	pro_sup_l
      4.95000000	     -5.26799359	      3.17855330	      6.40584154	      0.13216874	      0.93080483	     -0.00291101	     27.58483933	      2.95445094	     -4.27459884	     39.26785544	     15.00288439	    -10.47252176	      0.00000000	     47.75207111	     -6.82052245	     -9.03953498	     35.36334150	     -8.45314794	      8.46911071	      0.00000000	    -19.48282328	      5.54350803	     -1.38589534	     46.59049568	      4.38741574	     65.22785085	    125.92194356	     92.63151937	     57.02064385	     11.59190885	     68.97824168	    124.08873947	     70.61500196
      4.96666670	     -5.15666425	      3.38686909	      6.46645179	      0.13598741	      0.93334207	     -0.00435762	     26.47935623	      2.77495163	     -4.11341350	     37.88888318	     14.08166393	    -10.57046437	      0.00000000	     47.79783483	     -6.61080120	     -8.90762789	     38.04718431	     -7.47778619	      9.48936554	      0.00000000	    -18.93780499	      5.27638408	     -1.37720135	     46.19036862	      4.42062491	     65.29621226	    125.75148371	     92.59965502	     56.53582181	     11.43824363	     68.82750245	    124.06345294	     70.58167379
      4.98333330	     -5.04164257	      3.57440395	      6.66460458	      0.13768279	      0.93700075	     -0.00411962	     25.27658176	      2.64890246	     -4.07337673	     36.17063577	     13.34685976	    -11.19040618	      0.00000000	     47.93493063	     -6.40995089	     -8.74512358	     40.77037961	     -6.42808057	     10.32792450	      0.00000000	    -18.37920487	      5.03400615	     -1.41162878	     45.84028301	      4.42607277	     65.17863333	    125.54525613	     92.51813482	     56.07954743	     11.31340427	     68.75224079	    124.22852402	     70.53543507
      5.00000000	     -4.90280598	      3.84480556	      6.81861465	      0.13766450	      0.94036164	     -0.00359841	     24.24007676	      2.52964412	     -3.99968085	     35.03401234	     12.60176113	    -11.62641406	      0.00000000	     48.19133426	     -6.01977654	     -8.26132801	     43.58626692	     -5.51113271	     10.24423711	      0.00000000	    -17.88292953	      4.62074301	     -1.38673495	     45.68023727	      4.48242727	     64.93751981	    125.34366945	     92.44145557	     55.94097064	     11.28171103	     68.64653474	    124.27658212	     70.49112502
      5.01666670	     -4.57461833	      3.91412638	      7.14708218	      0.13726178	      0.94398808	     -0.00357545	     23.28688581	      2.66806184	     -3.79602636	     33.79528152	     11.32778617	    -13.09182010	      0.00000000	     48.17257353	     -5.74755109	     -7.85556195	     46.20250171	     -4.57029321	     10.52006518	      0.00000000	    -17.48461452	      4.52639882	     -1.44997877	     45.70136083	      4.51613476	     64.38282925	    124.98560844	     92.24510893	     55.99743817	     11.42585501	     68.37375803	    124.19990076	     70.35879544
      5.03333330	     -4.42364103	      4.18279293	      7.36158489	      0.13672713	      0.94648258	     -0.00411418	     22.86134462	      2.58533474	     -3.66113872	     33.26408083	      9.22595901	    -14.62129693	      0.00000000	     48.12109260	     -5.25553130	     -7.63958390	     48.35535414	     -3.71418684	      9.93051448	      0.00000000	    -17.00492254	      4.08430246	     -1.57947216	     45.75669639	      4.58223671	     64.18244047	    124.87464865	     92.01609354	     56.13842714	     11.56154959	     68.29258399	    124.10400031	     70.16676299
      5.05000000	     -4.29773970	      4.56553707	      7.42240865	      0.14013795	      0.94943488	     -0.00461363	     22.55636108	      2.37679288	     -3.51708462	     33.28058888	      8.62749881	    -14.60308852	      0.00000000	     47.81904392	     -4.71760444	     -7.41215482	     50.40483332	     -2.56301022	      9.58974769	      0.00000000	    -16.51533112	      3.53535331	     -1.65018693	     45.66482866	      4.64545376	     64.18581350	    124.83262334	     91.96407771	     56.11355128	     11.56431470	     68.23406537	    124.25511934	     70.11801452
      5.06666670	     -4.15624156	      4.86035778	      7.60233657	      0.14237353	      0.95319451	     -0.00528407	     22.04731951	      2.16019005	     -3.75773447	     33.35969787	      7.20724374	    -14.65358029	      0.00000000	     47.28386215	     -4.16561007	     -7.04236945	     52.17928959	     -1.57400181	      9.12845533	      0.00000000	    -16.02257876	      3.12120878	     -1.80978209	     45.44403762	      4.57402813	     64.07680864	    124.76237163	     91.89611439	     55.82503038	     11.54434817	     68.27795789	    124.36647234	     70.05168448
      5.08333330	     -3.84340894	      4.94304805	      7.94775559	      0.14439850	      0.95413036	     -0.00556655	     21.40420079	      2.21302490	     -3.88587048	     33.12911899	      6.09237493	    -16.43867753	      0.00000000	     46.86259945	     -3.68117002	     -6.22447333	     54.31484552	     -0.83627106	      8.32282453	      0.00000000	    -15.61731912	      2.92048611	     -2.06500195	     45.01168846	      4.62724716	     63.69406436	    124.81635683	     91.68349134	     55.44674221	     11.51075177	     68.27253935	    124.39149442	     69.81229569
      5.10000000	     -3.73739252	      5.21016852	      7.92839090	      0.14579552	      0.95775582	     -0.00499936	     20.85165780	      2.01901157	     -3.93433669	     32.92789023	      5.68048303	    -16.64393267	      0.00000000	     46.40719566	     -3.21257334	     -5.83153909	     55.98701573	     -0.30124221	      7.82960665	      0.00000000	    -15.06500703	      2.42975904	     -2.02099537	     44.58144862	      4.55331311	     63.88327648	    124.70228017	     91.64340023	     55.16538589	     11.48011875	     68.26798433	    124.38240269	     69.74738666
      5.11666670	     -3.39795187	      5.32500040	      8.20651009	      0.14757235	      0.96203258	     -0.00574568	     20.07297728	      1.87270554	     -4.16865429	     32.25045216	      5.14625680	    -17.54400859	      0.00000000	     45.84617767	     -2.65857243	     -5.16645742	     57.55939322	     -1.11106160	      6.52777880	      0.00000000	    -14.75707793	      2.20103159	     -2.13791762	     44.23252237	      4.45741305	     63.25304248	    124.51834070	     91.46427406	     54.77523885	     11.48796056	     67.95568700	    124.12517296	     69.52421758
      5.13333330	     -3.13418982	      5.48953520	      8.31575434	      0.14812443	      0.96828528	     -0.00375549	     19.35028743	      1.73335109	     -4.34157456	     31.43251050	      3.72142745	    -17.98141784	      0.00000000	     45.02352534	     -2.16295101	     -4.59361167	     58.44748600	     -2.83025964	      4.92925141	      0.00000000	    -14.64642042	      1.83136687	     -2.03888745	     43.88736076	      4.35224081	     62.91491632	    124.47112274	     91.27338859	     54.49473773	     11.50694281	     68.07100693	    124.25334766	     69.31094659
      5.15000000	     -2.74705694	      5.51426218	      8.09187244	      0.15121371	      0.96986675	     -0.00461973	     18.43133675	      1.75163884	     -4.75007878	     30.61486047	      2.37092413	    -18.19413053	      0.00000000	     44.07994706	     -1.92231739	     -4.15124592	     59.11936403	     -4.00991977	      3.96838476	      0.00000000	    -14.57486664	      1.62139755	     -1.97631788	     43.61775193	      4.10336753	     61.90597740	    124.15039038	     91.05437451	     54.32360399	     11.42617550	     67.80444313	    124.17035496	     69.08074634
      5.16666670	     -2.58274486	      5.56405426	      7.97889935	      0.15278070	      0.97146657	     -0.00441295	     17.63142168	      1.76783398	     -4.96032388	     29.76954560	      2.12742346	    -18.08389198	      0.00000000	     43.41026670	     -1.54743423	     -3.69916786	     59.97767017	     -3.75204044	      3.24964498	      0.00000000	    -14.23772583	      1.34429148	     -1.98303084	     43.37883753	      3.71248486	     61.05292952	    123.83593372	     90.92144484	     53.88070548	     11.12063517	     67.85578307	    124.22034355	     68.97554277
      5.18333330	     -2.33515498	      5.61848725	      7.90888473	      0.15380976	      0.97277346	     -0.00369595	     16.61339999	      1.78570540	     -5.26864811	     28.87944212	      2.33665222	    -17.68846617	      0.00000000	     42.76553523	     -1.21655763	     -3.27451813	     61.03092471	     -3.17907257	      2.43859127	      0.00000000	    -13.96861166	      1.13527994	     -2.01220969	     42.99486219	      3.58281902	     58.93362614	    123.31467827	     90.63210208	     53.76632578	     11.11685600	     67.46052034	    124.28055751	     68.76253350
      5.20000000	     -2.24947842	      5.70893040	      7.74156246	      0.15585138	      0.97348739	     -0.00412694	     15.92103401	      1.76622212	     -5.35492438	     28.14930952	      2.57009875	    -17.42553914	      0.00000000	     42.31857691	     -0.86163585	     -3.00760063	     61.93782955	     -2.34301537	      1.80972727	      0.00000000	    -13.43449070	      0.78948553	     -1.96911864	     42.73466624	      3.60425776	     58.65074213	    123.39299165	     90.54681949	     53.56081143	     11.07790799	     67.44168432	    124.25511396	     68.68820753
      5.21666670	     -2.14083110	      5.71200150	      7.70138440	      0.15783473	      0.97543426	     -0.00206812	     15.27230925	      1.74592465	     -5.78471085	     27.26802574	      2.19086511	    -16.98143477	      0.00000000	     41.72967852	     -0.70530077	     -2.70427540	     62.94659102	     -2.21696004	      0.70863461	      0.00000000	    -12.91882545	      0.50603910	     -1.86799175	     42.37227465	      3.92641732	     58.56901027	    123.61451912	     90.44922864	     53.49995195	     11.24288217	     67.38784166	    124.16929182	     68.59184727
